<svg xmlns="http://www.w3.org/2000/svg" xmlns:xlink="http://www.w3.org/1999/xlink" width="500" zoomAndPan="magnify" viewBox="0 0 375 374.999991" height="500" preserveAspectRatio="xMidYMid meet" version="1.2"><defs><clipPath id="adc4ac01d8"><path d="M 209 78 L 219 78 L 219 133.5 L 209 133.5 Z M 209 78 "/></clipPath><clipPath id="c21b7a349b"><path d="M 166 78 L 176 78 L 176 133.5 L 166 133.5 Z M 166 78 "/></clipPath><clipPath id="04868909a7"><path d="M 123.730469 37.5 L 261.730469 37.5 L 261.730469 110 L 123.730469 110 Z M 123.730469 37.5 "/></clipPath><clipPath id="bc948c9799"><path d="M 207 127 L 216 127 L 216 174.484375 L 207 174.484375 Z M 207 127 "/></clipPath><clipPath id="5511f5aabc"><path d="M 170 127 L 179 127 L 179 174.484375 L 170 174.484375 Z M 170 127 "/></clipPath><clipPath id="afabca9a56"><path d="M 134.066406 92.734375 L 251.816406 92.734375 L 251.816406 154 L 134.066406 154 Z M 134.066406 92.734375 "/></clipPath><clipPath id="87fd9c13d6"><path d="M 184.1875 175.789062 L 192.867188 175.789062 L 192.867188 184.46875 L 184.1875 184.46875 Z M 184.1875 175.789062 "/></clipPath><clipPath id="48db4e66e9"><path d="M 188.527344 175.789062 C 186.128906 175.789062 184.1875 177.734375 184.1875 180.128906 C 184.1875 182.527344 186.128906 184.46875 188.527344 184.46875 C 190.921875 184.46875 192.867188 182.527344 192.867188 180.128906 C 192.867188 177.734375 190.921875 175.789062 188.527344 175.789062 Z M 188.527344 175.789062 "/></clipPath></defs><g id="0a28958ffe"><path style=" stroke:none;fill-rule:nonzero;fill:#f4f6fc;fill-opacity:1;" d="M 145.203125 116.804688 C 145.199219 119.253906 147.183594 121.238281 149.632812 121.242188 C 152.082031 121.242188 154.066406 119.257812 154.066406 116.808594 L 154.097656 67.605469 L 145.238281 60.214844 L 145.203125 116.804688 "/><g clip-rule="nonzero" clip-path="url(#adc4ac01d8)"><path style=" stroke:none;fill-rule:nonzero;fill:#f4f6fc;fill-opacity:1;" d="M 209.824219 85.5625 L 209.855469 128.988281 C 209.859375 131.433594 211.839844 133.417969 214.289062 133.417969 L 214.292969 133.417969 C 216.738281 133.414062 218.722656 131.429688 218.722656 128.980469 L 218.683594 78.175781 L 209.824219 85.5625 "/></g><g clip-rule="nonzero" clip-path="url(#c21b7a349b)"><path style=" stroke:none;fill-rule:nonzero;fill:#f4f6fc;fill-opacity:1;" d="M 166.738281 128.980469 C 166.734375 131.429688 168.71875 133.414062 171.167969 133.417969 L 171.171875 133.417969 C 173.617188 133.417969 175.601562 131.433594 175.601562 128.988281 L 175.636719 85.5625 L 166.773438 78.175781 L 166.738281 128.980469 "/></g><path style=" stroke:none;fill-rule:nonzero;fill:#f4f6fc;fill-opacity:1;" d="M 231.359375 67.601562 L 231.390625 116.808594 C 231.394531 119.257812 233.378906 121.242188 235.828125 121.242188 C 238.277344 121.238281 240.261719 119.253906 240.257812 116.804688 L 240.21875 60.214844 L 231.359375 67.601562 "/><g clip-rule="nonzero" clip-path="url(#04868909a7)"><path style=" stroke:none;fill-rule:nonzero;fill:#f4f6fc;fill-opacity:1;" d="M 259.519531 38.320312 C 258.164062 37.523438 256.484375 37.507812 255.113281 38.273438 L 192.726562 73.097656 L 130.347656 38.273438 C 128.972656 37.507812 127.296875 37.523438 125.941406 38.320312 C 124.582031 39.117188 123.753906 40.574219 123.753906 42.144531 L 123.769531 104.699219 C 123.769531 107.148438 125.753906 109.132812 128.203125 109.132812 L 128.207031 109.132812 C 130.652344 109.132812 132.636719 107.148438 132.636719 104.699219 L 132.621094 49.695312 L 190.566406 82.046875 C 191.910156 82.792969 193.546875 82.792969 194.890625 82.046875 L 252.835938 49.695312 L 252.832031 49.699219 L 252.839844 49.695312 L 252.824219 104.699219 C 252.820312 107.148438 254.804688 109.132812 257.253906 109.132812 C 258.480469 109.132812 259.585938 108.636719 260.390625 107.835938 C 261.191406 107.035156 261.6875 105.925781 261.6875 104.699219 L 261.707031 42.144531 C 261.707031 40.574219 260.875 39.117188 259.519531 38.320312 "/></g><path style=" stroke:none;fill-rule:nonzero;fill:#0081b8;fill-opacity:1;" d="M 152.359375 160.3125 C 152.359375 162.402344 154.046875 164.089844 156.132812 164.09375 L 156.136719 164.09375 C 158.222656 164.09375 159.914062 162.402344 159.914062 160.316406 L 159.941406 118.386719 L 152.390625 112.089844 L 152.359375 160.3125 "/><g clip-rule="nonzero" clip-path="url(#bc948c9799)"><path style=" stroke:none;fill-rule:nonzero;fill:#0081b8;fill-opacity:1;" d="M 207.425781 133.691406 L 207.453125 170.695312 C 207.457031 172.78125 209.148438 174.46875 211.234375 174.46875 C 213.320312 174.46875 215.011719 172.777344 215.007812 170.6875 L 214.976562 127.394531 L 207.425781 133.691406 "/></g><g clip-rule="nonzero" clip-path="url(#5511f5aabc)"><path style=" stroke:none;fill-rule:nonzero;fill:#0081b8;fill-opacity:1;" d="M 170.710938 170.6875 C 170.710938 172.777344 172.402344 174.46875 174.488281 174.46875 C 176.574219 174.46875 178.265625 172.78125 178.265625 170.695312 L 178.292969 133.691406 L 170.742188 127.394531 L 170.710938 170.6875 "/></g><path style=" stroke:none;fill-rule:nonzero;fill:#0081b8;fill-opacity:1;" d="M 225.78125 118.386719 L 225.804688 160.316406 C 225.808594 162.402344 227.5 164.09375 229.585938 164.09375 C 231.671875 164.089844 233.363281 162.402344 233.363281 160.3125 L 233.328125 112.089844 L 225.78125 118.386719 "/><g clip-rule="nonzero" clip-path="url(#afabca9a56)"><path style=" stroke:none;fill-rule:nonzero;fill:#0081b8;fill-opacity:1;" d="M 249.777344 93.433594 C 248.617188 92.753906 247.1875 92.738281 246.019531 93.394531 L 192.859375 123.070312 L 139.699219 93.394531 C 138.53125 92.738281 137.101562 92.753906 135.945312 93.433594 C 134.789062 94.113281 134.082031 95.351562 134.082031 96.691406 L 134.097656 150 C 134.097656 152.085938 135.789062 153.773438 137.875 153.773438 C 139.960938 153.773438 141.652344 152.082031 141.652344 150 L 141.640625 103.125 L 191.019531 130.695312 C 192.164062 131.332031 193.554688 131.332031 194.703125 130.695312 L 244.078125 103.125 L 244.074219 103.128906 L 244.082031 103.125 L 244.070312 150 C 244.066406 152.082031 245.757812 153.773438 247.84375 153.773438 C 248.890625 153.773438 249.832031 153.351562 250.515625 152.667969 C 251.199219 151.988281 251.621094 151.042969 251.625 150 L 251.640625 96.691406 C 251.640625 95.351562 250.929688 94.113281 249.777344 93.433594 "/></g><g clip-rule="nonzero" clip-path="url(#87fd9c13d6)"><g clip-rule="nonzero" clip-path="url(#48db4e66e9)"><path style=" stroke:none;fill-rule:nonzero;fill:#f4f6fc;fill-opacity:1;" d="M 184.1875 175.789062 L 192.867188 175.789062 L 192.867188 184.46875 L 184.1875 184.46875 Z M 184.1875 175.789062 "/></g></g><g style="fill:#e4e4e4;fill-opacity:1;"><g transform="translate(78.446527, 232.937423)"><path style="stroke:none" d="M 32.9375 -33.40625 C 33.570312 -33.375 34.109375 -33.144531 34.546875 -32.71875 C 34.992188 -32.289062 35.21875 -31.757812 35.21875 -31.125 L 35.21875 -2.28125 C 35.21875 -1.644531 35.003906 -1.101562 34.578125 -0.65625 C 34.148438 -0.21875 33.585938 0 32.890625 0 C 32.179688 0 31.601562 -0.210938 31.15625 -0.640625 C 30.71875 -1.066406 30.5 -1.613281 30.5 -2.28125 L 30.5 -24.359375 L 21.25 -10.34375 C 21.03125 -10.050781 20.753906 -9.8125 20.421875 -9.625 C 20.085938 -9.4375 19.742188 -9.359375 19.390625 -9.390625 C 19.078125 -9.359375 18.753906 -9.4375 18.421875 -9.625 C 18.085938 -9.8125 17.804688 -10.050781 17.578125 -10.34375 L 8.296875 -24.78125 L 8.296875 -2.28125 C 8.296875 -1.613281 8.09375 -1.066406 7.6875 -0.640625 C 7.289062 -0.210938 6.757812 0 6.09375 0 C 5.457031 0 4.941406 -0.210938 4.546875 -0.640625 C 4.148438 -1.066406 3.953125 -1.613281 3.953125 -2.28125 L 3.953125 -31.125 C 3.953125 -31.726562 4.175781 -32.257812 4.625 -32.71875 C 5.070312 -33.175781 5.628906 -33.40625 6.296875 -33.40625 C 6.671875 -33.40625 7.039062 -33.304688 7.40625 -33.109375 C 7.769531 -32.921875 8.066406 -32.671875 8.296875 -32.359375 L 19.59375 -15.25 L 31.03125 -32.359375 C 31.53125 -33.054688 32.164062 -33.40625 32.9375 -33.40625 Z M 32.9375 -33.40625 "/></g></g><g style="fill:#e4e4e4;fill-opacity:1;"><g transform="translate(117.614309, 232.937423)"><path style="stroke:none" d="M 27.59375 -33.40625 C 28.257812 -33.40625 28.789062 -33.191406 29.1875 -32.765625 C 29.582031 -32.335938 29.78125 -31.789062 29.78125 -31.125 L 29.78125 -12.8125 C 29.78125 -10.3125 29.222656 -8.054688 28.109375 -6.046875 C 27.003906 -4.046875 25.472656 -2.484375 23.515625 -1.359375 C 21.566406 -0.234375 19.367188 0.328125 16.921875 0.328125 C 14.441406 0.328125 12.21875 -0.234375 10.25 -1.359375 C 8.28125 -2.484375 6.738281 -4.046875 5.625 -6.046875 C 4.507812 -8.054688 3.953125 -10.3125 3.953125 -12.8125 L 3.953125 -31.125 C 3.953125 -31.789062 4.175781 -32.335938 4.625 -32.765625 C 5.070312 -33.191406 5.644531 -33.40625 6.34375 -33.40625 C 6.945312 -33.40625 7.476562 -33.179688 7.9375 -32.734375 C 8.394531 -32.296875 8.625 -31.757812 8.625 -31.125 L 8.625 -12.8125 C 8.625 -11.164062 9.003906 -9.679688 9.765625 -8.359375 C 10.523438 -7.046875 11.539062 -6.019531 12.8125 -5.28125 C 14.082031 -4.550781 15.453125 -4.1875 16.921875 -4.1875 C 18.441406 -4.1875 19.851562 -4.550781 21.15625 -5.28125 C 22.457031 -6.019531 23.5 -7.046875 24.28125 -8.359375 C 25.0625 -9.679688 25.453125 -11.164062 25.453125 -12.8125 L 25.453125 -31.125 C 25.453125 -31.789062 25.640625 -32.335938 26.015625 -32.765625 C 26.398438 -33.191406 26.925781 -33.40625 27.59375 -33.40625 Z M 27.59375 -33.40625 "/></g></g><g style="fill:#e4e4e4;fill-opacity:1;"><g transform="translate(151.350071, 232.937423)"><path style="stroke:none" d="M 14.0625 0.484375 C 11.738281 0.484375 9.6875 0.15625 7.90625 -0.5 C 6.132812 -1.15625 4.4375 -2.210938 2.8125 -3.671875 C 2.144531 -4.242188 1.8125 -4.894531 1.8125 -5.625 C 1.8125 -6.195312 2.03125 -6.710938 2.46875 -7.171875 C 2.914062 -7.628906 3.441406 -7.859375 4.046875 -7.859375 C 4.585938 -7.859375 5.050781 -7.6875 5.4375 -7.34375 C 6.707031 -6.164062 8.015625 -5.296875 9.359375 -4.734375 C 10.710938 -4.179688 12.25 -3.90625 13.96875 -3.90625 C 15.96875 -3.90625 17.65625 -4.363281 19.03125 -5.28125 C 20.414062 -6.207031 21.109375 -7.367188 21.109375 -8.765625 C 21.078125 -10.421875 20.382812 -11.703125 19.03125 -12.609375 C 17.6875 -13.515625 15.632812 -14.269531 12.875 -14.875 C 9.59375 -15.539062 7.070312 -16.632812 5.3125 -18.15625 C 3.550781 -19.675781 2.671875 -21.789062 2.671875 -24.5 C 2.671875 -26.375 3.160156 -28.015625 4.140625 -29.421875 C 5.128906 -30.835938 6.492188 -31.925781 8.234375 -32.6875 C 9.984375 -33.457031 11.957031 -33.84375 14.15625 -33.84375 C 16.125 -33.84375 17.976562 -33.523438 19.71875 -32.890625 C 21.46875 -32.253906 22.882812 -31.410156 23.96875 -30.359375 C 24.695312 -29.722656 25.0625 -29.039062 25.0625 -28.3125 C 25.0625 -27.738281 24.847656 -27.226562 24.421875 -26.78125 C 23.992188 -26.332031 23.476562 -26.109375 22.875 -26.109375 C 22.425781 -26.109375 22.0625 -26.238281 21.78125 -26.5 C 20.957031 -27.320312 19.8125 -28.019531 18.34375 -28.59375 C 16.882812 -29.164062 15.488281 -29.453125 14.15625 -29.453125 C 12.03125 -29.453125 10.335938 -29.015625 9.078125 -28.140625 C 7.828125 -27.265625 7.203125 -26.113281 7.203125 -24.6875 C 7.203125 -23.125 7.828125 -21.929688 9.078125 -21.109375 C 10.335938 -20.285156 12.203125 -19.585938 14.671875 -19.015625 C 17.148438 -18.472656 19.175781 -17.835938 20.75 -17.109375 C 22.320312 -16.378906 23.535156 -15.363281 24.390625 -14.0625 C 25.253906 -12.757812 25.6875 -11.054688 25.6875 -8.953125 C 25.6875 -7.117188 25.171875 -5.484375 24.140625 -4.046875 C 23.109375 -2.617188 21.703125 -1.503906 19.921875 -0.703125 C 18.140625 0.0859375 16.1875 0.484375 14.0625 0.484375 Z M 14.0625 0.484375 "/></g></g><g style="fill:#e4e4e4;fill-opacity:1;"><g transform="translate(179.082013, 232.937423)"><path style="stroke:none" d="M 25.59375 -33.359375 C 26.257812 -33.359375 26.804688 -33.160156 27.234375 -32.765625 C 27.660156 -32.367188 27.875 -31.835938 27.875 -31.171875 C 27.875 -30.503906 27.660156 -29.976562 27.234375 -29.59375 C 26.804688 -29.207031 26.257812 -29.015625 25.59375 -29.015625 L 17.109375 -29.015625 L 17.109375 -2.28125 C 17.109375 -1.644531 16.878906 -1.101562 16.421875 -0.65625 C 15.960938 -0.21875 15.378906 0 14.671875 0 C 13.972656 0 13.394531 -0.21875 12.9375 -0.65625 C 12.476562 -1.101562 12.25 -1.644531 12.25 -2.28125 L 12.25 -29.015625 L 3.8125 -29.015625 C 3.144531 -29.015625 2.597656 -29.210938 2.171875 -29.609375 C 1.742188 -30.015625 1.53125 -30.550781 1.53125 -31.21875 C 1.53125 -31.851562 1.742188 -32.367188 2.171875 -32.765625 C 2.597656 -33.160156 3.144531 -33.359375 3.8125 -33.359375 Z M 25.59375 -33.359375 "/></g></g><g style="fill:#e4e4e4;fill-opacity:1;"><g transform="translate(208.481676, 232.937423)"><path style="stroke:none" d="M 29.59375 -2.953125 C 29.6875 -2.671875 29.734375 -2.367188 29.734375 -2.046875 C 29.734375 -1.410156 29.519531 -0.882812 29.09375 -0.46875 C 28.664062 -0.0625 28.164062 0.140625 27.59375 0.140625 C 27.144531 0.140625 26.738281 0.00390625 26.375 -0.265625 C 26.007812 -0.535156 25.71875 -0.90625 25.5 -1.375 L 22.546875 -8.390625 L 7.8125 -8.390625 L 4.90625 -1.328125 C 4.75 -0.859375 4.488281 -0.492188 4.125 -0.234375 C 3.757812 0.015625 3.351562 0.140625 2.90625 0.140625 C 2.238281 0.140625 1.726562 -0.03125 1.375 -0.375 C 1.03125 -0.726562 0.859375 -1.207031 0.859375 -1.8125 C 0.859375 -1.9375 0.890625 -2.191406 0.953125 -2.578125 L 13.109375 -32.03125 C 13.328125 -32.53125 13.632812 -32.914062 14.03125 -33.1875 C 14.425781 -33.457031 14.878906 -33.5625 15.390625 -33.5 C 15.867188 -33.5 16.296875 -33.367188 16.671875 -33.109375 C 17.054688 -32.859375 17.328125 -32.5 17.484375 -32.03125 Z M 9.625 -12.71875 L 20.734375 -12.71875 L 15.15625 -26.0625 Z M 9.625 -12.71875 "/></g></g><g style="fill:#e4e4e4;fill-opacity:1;"><g transform="translate(239.072577, 232.937423)"><path style="stroke:none" d="M 8.625 -28.96875 L 8.625 -19.109375 L 20.34375 -19.109375 C 21.007812 -19.109375 21.554688 -18.898438 21.984375 -18.484375 C 22.421875 -18.078125 22.640625 -17.539062 22.640625 -16.875 C 22.640625 -16.300781 22.421875 -15.804688 21.984375 -15.390625 C 21.554688 -14.984375 21.007812 -14.78125 20.34375 -14.78125 L 8.625 -14.78125 L 8.625 -2.28125 C 8.625 -1.644531 8.394531 -1.101562 7.9375 -0.65625 C 7.476562 -0.21875 6.929688 0 6.296875 0 C 5.628906 0 5.070312 -0.21875 4.625 -0.65625 C 4.175781 -1.101562 3.953125 -1.644531 3.953125 -2.28125 L 3.953125 -31.078125 C 3.953125 -31.710938 4.175781 -32.25 4.625 -32.6875 C 5.070312 -33.132812 5.613281 -33.359375 6.25 -33.359375 L 22.5 -33.359375 C 23.164062 -33.359375 23.710938 -33.148438 24.140625 -32.734375 C 24.566406 -32.328125 24.78125 -31.789062 24.78125 -31.125 C 24.78125 -30.550781 24.554688 -30.046875 24.109375 -29.609375 C 23.671875 -29.179688 23.132812 -28.96875 22.5 -28.96875 Z M 8.625 -28.96875 "/></g></g><g style="fill:#e4e4e4;fill-opacity:1;"><g transform="translate(265.946819, 232.937423)"><path style="stroke:none" d="M 29.59375 -2.953125 C 29.6875 -2.671875 29.734375 -2.367188 29.734375 -2.046875 C 29.734375 -1.410156 29.519531 -0.882812 29.09375 -0.46875 C 28.664062 -0.0625 28.164062 0.140625 27.59375 0.140625 C 27.144531 0.140625 26.738281 0.00390625 26.375 -0.265625 C 26.007812 -0.535156 25.71875 -0.90625 25.5 -1.375 L 22.546875 -8.390625 L 7.8125 -8.390625 L 4.90625 -1.328125 C 4.75 -0.859375 4.488281 -0.492188 4.125 -0.234375 C 3.757812 0.015625 3.351562 0.140625 2.90625 0.140625 C 2.238281 0.140625 1.726562 -0.03125 1.375 -0.375 C 1.03125 -0.726562 0.859375 -1.207031 0.859375 -1.8125 C 0.859375 -1.9375 0.890625 -2.191406 0.953125 -2.578125 L 13.109375 -32.03125 C 13.328125 -32.53125 13.632812 -32.914062 14.03125 -33.1875 C 14.425781 -33.457031 14.878906 -33.5625 15.390625 -33.5 C 15.867188 -33.5 16.296875 -33.367188 16.671875 -33.109375 C 17.054688 -32.859375 17.328125 -32.5 17.484375 -32.03125 Z M 9.625 -12.71875 L 20.734375 -12.71875 L 15.15625 -26.0625 Z M 9.625 -12.71875 "/></g></g><g style="fill:#f4f6fc;fill-opacity:1;"><g transform="translate(149.428122, 255.444911)"><path style="stroke:none" d="M 3.8125 0.140625 C 3.15625 0.140625 2.5625 0.0351562 2.03125 -0.171875 C 1.507812 -0.390625 1.085938 -0.710938 0.765625 -1.140625 C 0.441406 -1.578125 0.265625 -2.117188 0.234375 -2.765625 L 1.0625 -2.765625 C 1.101562 -2.035156 1.375 -1.484375 1.875 -1.109375 C 2.375 -0.734375 3.019531 -0.546875 3.8125 -0.546875 C 4.539062 -0.546875 5.082031 -0.710938 5.4375 -1.046875 C 5.800781 -1.390625 5.984375 -1.796875 5.984375 -2.265625 C 5.984375 -2.691406 5.875 -3.023438 5.65625 -3.265625 C 5.445312 -3.503906 5.132812 -3.691406 4.71875 -3.828125 C 4.3125 -3.960938 3.8125 -4.082031 3.21875 -4.1875 C 2.675781 -4.289062 2.203125 -4.429688 1.796875 -4.609375 C 1.398438 -4.785156 1.09375 -5.023438 0.875 -5.328125 C 0.65625 -5.640625 0.546875 -6.035156 0.546875 -6.515625 C 0.546875 -7.015625 0.671875 -7.425781 0.921875 -7.75 C 1.179688 -8.070312 1.523438 -8.3125 1.953125 -8.46875 C 2.390625 -8.632812 2.878906 -8.71875 3.421875 -8.71875 C 4.015625 -8.71875 4.539062 -8.617188 5 -8.421875 C 5.457031 -8.222656 5.820312 -7.9375 6.09375 -7.5625 C 6.363281 -7.1875 6.515625 -6.734375 6.546875 -6.203125 L 5.71875 -6.203125 C 5.65625 -6.753906 5.4375 -7.195312 5.0625 -7.53125 C 4.6875 -7.863281 4.140625 -8.03125 3.421875 -8.03125 C 2.816406 -8.03125 2.320312 -7.898438 1.9375 -7.640625 C 1.5625 -7.378906 1.375 -7.019531 1.375 -6.5625 C 1.375 -6.175781 1.46875 -5.875 1.65625 -5.65625 C 1.851562 -5.445312 2.128906 -5.285156 2.484375 -5.171875 C 2.835938 -5.054688 3.269531 -4.953125 3.78125 -4.859375 C 4.40625 -4.734375 4.941406 -4.570312 5.390625 -4.375 C 5.847656 -4.1875 6.195312 -3.925781 6.4375 -3.59375 C 6.6875 -3.269531 6.8125 -2.84375 6.8125 -2.3125 C 6.8125 -1.851562 6.691406 -1.4375 6.453125 -1.0625 C 6.222656 -0.6875 5.882812 -0.390625 5.4375 -0.171875 C 4.988281 0.0351562 4.445312 0.140625 3.8125 0.140625 Z M 3.8125 0.140625 "/></g></g><g style="fill:#f4f6fc;fill-opacity:1;"><g transform="translate(158.558979, 255.444911)"><path style="stroke:none" d="M 4.40625 0.140625 C 3.59375 0.140625 2.882812 -0.046875 2.28125 -0.421875 C 1.6875 -0.804688 1.222656 -1.332031 0.890625 -2 C 0.554688 -2.664062 0.390625 -3.429688 0.390625 -4.296875 C 0.390625 -5.148438 0.554688 -5.910156 0.890625 -6.578125 C 1.222656 -7.242188 1.6875 -7.765625 2.28125 -8.140625 C 2.882812 -8.523438 3.59375 -8.71875 4.40625 -8.71875 C 5.21875 -8.71875 5.925781 -8.523438 6.53125 -8.140625 C 7.132812 -7.765625 7.597656 -7.242188 7.921875 -6.578125 C 8.253906 -5.910156 8.421875 -5.148438 8.421875 -4.296875 C 8.421875 -3.429688 8.253906 -2.664062 7.921875 -2 C 7.597656 -1.332031 7.132812 -0.804688 6.53125 -0.421875 C 5.925781 -0.046875 5.21875 0.140625 4.40625 0.140625 Z M 4.40625 -0.546875 C 5.050781 -0.546875 5.609375 -0.703125 6.078125 -1.015625 C 6.554688 -1.335938 6.925781 -1.78125 7.1875 -2.34375 C 7.457031 -2.90625 7.59375 -3.554688 7.59375 -4.296875 C 7.59375 -5.023438 7.457031 -5.671875 7.1875 -6.234375 C 6.925781 -6.796875 6.554688 -7.234375 6.078125 -7.546875 C 5.609375 -7.867188 5.050781 -8.03125 4.40625 -8.03125 C 3.78125 -8.03125 3.226562 -7.867188 2.75 -7.546875 C 2.269531 -7.234375 1.894531 -6.796875 1.625 -6.234375 C 1.351562 -5.671875 1.21875 -5.023438 1.21875 -4.296875 C 1.21875 -3.554688 1.351562 -2.90625 1.625 -2.34375 C 1.894531 -1.78125 2.269531 -1.335938 2.75 -1.015625 C 3.226562 -0.703125 3.78125 -0.546875 4.40625 -0.546875 Z M 4.40625 -0.546875 "/></g></g><g style="fill:#f4f6fc;fill-opacity:1;"><g transform="translate(169.307511, 255.444911)"><path style="stroke:none" d="M 0.734375 0 L 0.734375 -8.5625 L 6.453125 -8.5625 L 6.453125 -7.875 L 1.5625 -7.875 L 1.5625 -4.703125 L 5.734375 -4.703125 L 5.734375 -4.015625 L 1.5625 -4.015625 L 1.5625 0 Z M 0.734375 0 "/></g></g><g style="fill:#f4f6fc;fill-opacity:1;"><g transform="translate(177.995009, 255.444911)"><path style="stroke:none" d="M 3.15625 0 L 3.15625 -7.875 L 0.234375 -7.875 L 0.234375 -8.5625 L 6.890625 -8.5625 L 6.890625 -7.875 L 3.984375 -7.875 L 3.984375 0 Z M 3.15625 0 "/></g></g><g style="fill:#f4f6fc;fill-opacity:1;"><g transform="translate(187.041988, 255.444911)"><path style="stroke:none" d="M 2.375 0 L 0.125 -8.5625 L 0.953125 -8.5625 L 2.8125 -1.15625 L 2.828125 -1.15625 L 4.875 -8.5625 L 5.734375 -8.5625 L 7.796875 -1.15625 L 7.8125 -1.15625 L 9.671875 -8.5625 L 10.5 -8.5625 L 8.25 0 L 7.375 0 L 5.328125 -7.296875 L 5.296875 -7.296875 L 3.25 0 Z M 2.375 0 "/></g></g><g style="fill:#f4f6fc;fill-opacity:1;"><g transform="translate(199.587943, 255.444911)"><path style="stroke:none" d="M 0.078125 0 L 3.3125 -8.5625 L 4.1875 -8.5625 L 7.4375 0 L 6.609375 0 L 5.625 -2.640625 L 1.875 -2.640625 L 0.90625 0 Z M 2.09375 -3.296875 L 5.421875 -3.296875 L 3.765625 -7.734375 L 3.734375 -7.734375 Z M 2.09375 -3.296875 "/></g></g><g style="fill:#f4f6fc;fill-opacity:1;"><g transform="translate(209.030347, 255.444911)"><path style="stroke:none" d="M 0.734375 0 L 0.734375 -8.5625 L 4.25 -8.5625 C 5.070312 -8.5625 5.726562 -8.363281 6.21875 -7.96875 C 6.71875 -7.570312 6.96875 -6.960938 6.96875 -6.140625 C 6.96875 -5.535156 6.796875 -5.050781 6.453125 -4.6875 C 6.117188 -4.320312 5.671875 -4.082031 5.109375 -3.96875 L 5.109375 -3.9375 C 5.460938 -3.894531 5.75 -3.769531 5.96875 -3.5625 C 6.1875 -3.363281 6.351562 -3.125 6.46875 -2.84375 C 6.59375 -2.5625 6.679688 -2.265625 6.734375 -1.953125 C 6.785156 -1.648438 6.820312 -1.359375 6.84375 -1.078125 C 6.863281 -0.804688 6.890625 -0.578125 6.921875 -0.390625 C 6.960938 -0.210938 7.023438 -0.109375 7.109375 -0.078125 L 7.109375 0 L 6.234375 0 C 6.160156 -0.0625 6.109375 -0.191406 6.078125 -0.390625 C 6.054688 -0.585938 6.035156 -0.820312 6.015625 -1.09375 C 5.992188 -1.363281 5.953125 -1.640625 5.890625 -1.921875 C 5.835938 -2.210938 5.75 -2.484375 5.625 -2.734375 C 5.5 -2.984375 5.320312 -3.1875 5.09375 -3.34375 C 4.863281 -3.5 4.554688 -3.578125 4.171875 -3.578125 L 1.5625 -3.578125 L 1.5625 0 Z M 1.5625 -4.265625 L 3.984375 -4.265625 C 4.617188 -4.265625 5.132812 -4.414062 5.53125 -4.71875 C 5.9375 -5.019531 6.140625 -5.472656 6.140625 -6.078125 C 6.140625 -6.710938 5.953125 -7.171875 5.578125 -7.453125 C 5.210938 -7.734375 4.679688 -7.875 3.984375 -7.875 L 1.5625 -7.875 Z M 1.5625 -4.265625 "/></g></g><g style="fill:#f4f6fc;fill-opacity:1;"><g transform="translate(218.412841, 255.444911)"><path style="stroke:none" d="M 0.734375 0 L 0.734375 -8.5625 L 6.578125 -8.5625 L 6.578125 -7.875 L 1.5625 -7.875 L 1.5625 -4.859375 L 6.109375 -4.859375 L 6.109375 -4.171875 L 1.5625 -4.171875 L 1.5625 -0.6875 L 6.6875 -0.6875 L 6.6875 0 Z M 0.734375 0 "/></g></g><g style="fill:#f4f6fc;fill-opacity:1;"><g transform="translate(146.57287, 271.42184)"><path style="stroke:none" d="M 0.734375 0 L 0.734375 -8.5625 L 3.984375 -8.5625 C 4.804688 -8.5625 5.484375 -8.375 6.015625 -8 C 6.546875 -7.625 6.941406 -7.113281 7.203125 -6.46875 C 7.460938 -5.820312 7.59375 -5.082031 7.59375 -4.25 C 7.59375 -3.425781 7.457031 -2.691406 7.1875 -2.046875 C 6.925781 -1.410156 6.523438 -0.910156 5.984375 -0.546875 C 5.453125 -0.179688 4.773438 0 3.953125 0 Z M 1.546875 -0.6875 L 3.859375 -0.6875 C 4.804688 -0.6875 5.523438 -1.003906 6.015625 -1.640625 C 6.515625 -2.273438 6.765625 -3.144531 6.765625 -4.25 C 6.765625 -5.351562 6.523438 -6.234375 6.046875 -6.890625 C 5.578125 -7.546875 4.867188 -7.875 3.921875 -7.875 L 1.546875 -7.875 Z M 1.546875 -0.6875 "/></g></g><g style="fill:#f4f6fc;fill-opacity:1;"><g transform="translate(156.482601, 271.42184)"><path style="stroke:none" d="M 0.734375 0 L 0.734375 -8.5625 L 6.578125 -8.5625 L 6.578125 -7.875 L 1.5625 -7.875 L 1.5625 -4.859375 L 6.109375 -4.859375 L 6.109375 -4.171875 L 1.5625 -4.171875 L 1.5625 -0.6875 L 6.6875 -0.6875 L 6.6875 0 Z M 0.734375 0 "/></g></g><g style="fill:#f4f6fc;fill-opacity:1;"><g transform="translate(165.529581, 271.42184)"><path style="stroke:none" d="M 3.234375 0 L 0.078125 -8.5625 L 0.953125 -8.5625 L 3.625 -1.15625 L 3.640625 -1.15625 L 6.3125 -8.5625 L 7.1875 -8.5625 L 4.03125 0 Z M 3.234375 0 "/></g></g><g style="fill:#f4f6fc;fill-opacity:1;"><g transform="translate(174.720349, 271.42184)"><path style="stroke:none" d="M 0.734375 0 L 0.734375 -8.5625 L 6.578125 -8.5625 L 6.578125 -7.875 L 1.5625 -7.875 L 1.5625 -4.859375 L 6.109375 -4.859375 L 6.109375 -4.171875 L 1.5625 -4.171875 L 1.5625 -0.6875 L 6.6875 -0.6875 L 6.6875 0 Z M 0.734375 0 "/></g></g><g style="fill:#f4f6fc;fill-opacity:1;"><g transform="translate(183.767328, 271.42184)"><path style="stroke:none" d="M 0.734375 0 L 0.734375 -8.5625 L 1.5625 -8.5625 L 1.5625 -0.6875 L 6.203125 -0.6875 L 6.203125 0 Z M 0.734375 0 "/></g></g><g style="fill:#f4f6fc;fill-opacity:1;"><g transform="translate(192.155256, 271.42184)"><path style="stroke:none" d="M 4.40625 0.140625 C 3.59375 0.140625 2.882812 -0.046875 2.28125 -0.421875 C 1.6875 -0.804688 1.222656 -1.332031 0.890625 -2 C 0.554688 -2.664062 0.390625 -3.429688 0.390625 -4.296875 C 0.390625 -5.148438 0.554688 -5.910156 0.890625 -6.578125 C 1.222656 -7.242188 1.6875 -7.765625 2.28125 -8.140625 C 2.882812 -8.523438 3.59375 -8.71875 4.40625 -8.71875 C 5.21875 -8.71875 5.925781 -8.523438 6.53125 -8.140625 C 7.132812 -7.765625 7.597656 -7.242188 7.921875 -6.578125 C 8.253906 -5.910156 8.421875 -5.148438 8.421875 -4.296875 C 8.421875 -3.429688 8.253906 -2.664062 7.921875 -2 C 7.597656 -1.332031 7.132812 -0.804688 6.53125 -0.421875 C 5.925781 -0.046875 5.21875 0.140625 4.40625 0.140625 Z M 4.40625 -0.546875 C 5.050781 -0.546875 5.609375 -0.703125 6.078125 -1.015625 C 6.554688 -1.335938 6.925781 -1.78125 7.1875 -2.34375 C 7.457031 -2.90625 7.59375 -3.554688 7.59375 -4.296875 C 7.59375 -5.023438 7.457031 -5.671875 7.1875 -6.234375 C 6.925781 -6.796875 6.554688 -7.234375 6.078125 -7.546875 C 5.609375 -7.867188 5.050781 -8.03125 4.40625 -8.03125 C 3.78125 -8.03125 3.226562 -7.867188 2.75 -7.546875 C 2.269531 -7.234375 1.894531 -6.796875 1.625 -6.234375 C 1.351562 -5.671875 1.21875 -5.023438 1.21875 -4.296875 C 1.21875 -3.554688 1.351562 -2.90625 1.625 -2.34375 C 1.894531 -1.78125 2.269531 -1.335938 2.75 -1.015625 C 3.226562 -0.703125 3.78125 -0.546875 4.40625 -0.546875 Z M 4.40625 -0.546875 "/></g></g><g style="fill:#f4f6fc;fill-opacity:1;"><g transform="translate(202.903788, 271.42184)"><path style="stroke:none" d="M 0.734375 0 L 0.734375 -8.5625 L 4.046875 -8.5625 C 4.597656 -8.5625 5.078125 -8.476562 5.484375 -8.3125 C 5.898438 -8.144531 6.222656 -7.878906 6.453125 -7.515625 C 6.691406 -7.148438 6.8125 -6.664062 6.8125 -6.0625 C 6.8125 -5.46875 6.691406 -4.984375 6.453125 -4.609375 C 6.222656 -4.242188 5.898438 -3.976562 5.484375 -3.8125 C 5.078125 -3.644531 4.597656 -3.5625 4.046875 -3.5625 L 1.5625 -3.5625 L 1.5625 0 Z M 1.5625 -4.25 L 4.03125 -4.25 C 4.625 -4.25 5.097656 -4.390625 5.453125 -4.671875 C 5.804688 -4.960938 5.984375 -5.425781 5.984375 -6.0625 C 5.984375 -6.695312 5.804688 -7.15625 5.453125 -7.4375 C 5.097656 -7.726562 4.625 -7.875 4.03125 -7.875 L 1.5625 -7.875 Z M 1.5625 -4.25 "/></g></g><g style="fill:#f4f6fc;fill-opacity:1;"><g transform="translate(211.890856, 271.42184)"><path style="stroke:none" d="M 0.734375 0 L 0.734375 -8.5625 L 6.578125 -8.5625 L 6.578125 -7.875 L 1.5625 -7.875 L 1.5625 -4.859375 L 6.109375 -4.859375 L 6.109375 -4.171875 L 1.5625 -4.171875 L 1.5625 -0.6875 L 6.6875 -0.6875 L 6.6875 0 Z M 0.734375 0 "/></g></g><g style="fill:#f4f6fc;fill-opacity:1;"><g transform="translate(220.937835, 271.42184)"><path style="stroke:none" d="M 0.734375 0 L 0.734375 -8.5625 L 4.25 -8.5625 C 5.070312 -8.5625 5.726562 -8.363281 6.21875 -7.96875 C 6.71875 -7.570312 6.96875 -6.960938 6.96875 -6.140625 C 6.96875 -5.535156 6.796875 -5.050781 6.453125 -4.6875 C 6.117188 -4.320312 5.671875 -4.082031 5.109375 -3.96875 L 5.109375 -3.9375 C 5.460938 -3.894531 5.75 -3.769531 5.96875 -3.5625 C 6.1875 -3.363281 6.351562 -3.125 6.46875 -2.84375 C 6.59375 -2.5625 6.679688 -2.265625 6.734375 -1.953125 C 6.785156 -1.648438 6.820312 -1.359375 6.84375 -1.078125 C 6.863281 -0.804688 6.890625 -0.578125 6.921875 -0.390625 C 6.960938 -0.210938 7.023438 -0.109375 7.109375 -0.078125 L 7.109375 0 L 6.234375 0 C 6.160156 -0.0625 6.109375 -0.191406 6.078125 -0.390625 C 6.054688 -0.585938 6.035156 -0.820312 6.015625 -1.09375 C 5.992188 -1.363281 5.953125 -1.640625 5.890625 -1.921875 C 5.835938 -2.210938 5.75 -2.484375 5.625 -2.734375 C 5.5 -2.984375 5.320312 -3.1875 5.09375 -3.34375 C 4.863281 -3.5 4.554688 -3.578125 4.171875 -3.578125 L 1.5625 -3.578125 L 1.5625 0 Z M 1.5625 -4.265625 L 3.984375 -4.265625 C 4.617188 -4.265625 5.132812 -4.414062 5.53125 -4.71875 C 5.9375 -5.019531 6.140625 -5.472656 6.140625 -6.078125 C 6.140625 -6.710938 5.953125 -7.171875 5.578125 -7.453125 C 5.210938 -7.734375 4.679688 -7.875 3.984375 -7.875 L 1.5625 -7.875 Z M 1.5625 -4.265625 "/></g></g></g></svg>